<svg xmlns="http://www.w3.org/2000/svg" viewBox="0 0 532.34 303.73"><g data-name="Слой 2"><path d="M472 127q11.36-14.68 18-23.56 48-63.77 41.59-81.5l-1.67-2.77q-1.66-2.5-8.59-4.58t-17.73-.69l-79.82.56a22.73 22.73 0 0 0-5.55.13 15.38 15.38 0 0 0-3.61.83l-1.38.69-1.11.83a12.26 12.26 0 0 0-3 2.91 18.81 18.81 0 0 0-2.77 4.85 452.18 452.18 0 0 1-29.66 62.36q-10.26 17.19-18.84 29.79t-14.46 18.58a100 100 0 0 1-10.53 9.57c-3.15 2.41-5.55 3.42-7.2 3.05s-3.24-.73-4.71-1.11a18.3 18.3 0 0 1-6.24-6.79 30.46 30.46 0 0 1-3.19-10.81c-.55-4.34-.88-8.08-1-11.23s0-7.57.14-13.31.27-9.6.27-11.64q0-10.52.42-22.86t.69-19.54q.28-7.2.27-15.24a63.6 63.6 0 0 0-1-12.61 44.18 44.18 0 0 0-2.84-8.91 14.88 14.88 0 0 0-5.69-6.65 32.05 32.05 0 0 0-9.28-3.75Q278.81.31 256.09 0q-51.55-.5-66.24 6.69A37.42 37.42 0 0 0 179.32 15q-5 6.11-1.38 6.65 16.63 2.5 23.56 11.92l1.66 3.32q1.94 3.62 3.88 12.75a129.32 129.32 0 0 1 2.5 20.23 215.34 215.34 0 0 1 0 34.65Q208.15 119 206.9 127a45 45 0 0 1-3.74 13 54.47 54.47 0 0 1-3.33 6.11 4.88 4.88 0 0 1-1.38 1.38 20.8 20.8 0 0 1-7.48 1.38q-3.88 0-9.43-3.89A65.55 65.55 0 0 1 170 134.32a141.83 141.83 0 0 1-13.45-19q-7.48-12.18-15.52-28.82l-4.43-8q-4.16-7.75-11.36-22.58T112.53 27.2a18.36 18.36 0 0 0-6.65-8.87l-1.38-.83a18.85 18.85 0 0 0-4.44-2.35 29.86 29.86 0 0 0-6.38-1.81l-75.94.55q-11.64 0-15.8 5.27L.83 20.83A8.94 8.94 0 0 0 0 25.26a22.05 22.05 0 0 0 1.66 7.48q16.64 39.09 36.17 75.39t34 58.49q14.41 22.19 29.38 41.85T121 233.68q4.85 5.55 7.62 8.32l6.93 6.66q6.65 6.65 19.54 15.94a328.85 328.85 0 0 0 28.55 18.29 154.73 154.73 0 0 0 36.44 14.69 125.58 125.58 0 0 0 40.47 4.57h31.87q9.7-.83 14.69-6.1l1.11-1.38a18.8 18.8 0 0 0 2.08-5.12 28.35 28.35 0 0 0 1-7.62 91.19 91.19 0 0 1 1.8-21.48q2.07-9.57 4.71-14.42a35.41 35.41 0 0 1 6-8.18 23.84 23.84 0 0 1 4.71-4 22.45 22.45 0 0 1 2.22-1q6.64-2.21 15.66 4.3a92.23 92.23 0 0 1 16.91 16.08q7.89 9.57 19 21.48t19.4 17.74l5.55 3.34a68.13 68.13 0 0 0 14.41 6.1q8.87 2.76 15.52 1.38l71-1.11q10.53 0 16.35-3.46c3.88-2.3 6.19-4.85 6.93-7.62a21.52 21.52 0 0 0 .14-9.42 34.4 34.4 0 0 0-1.94-7.34 37.6 37.6 0 0 0-1.81-3.46Q514 245.92 474.92 209.6l-.56-.55-.27-.28-.27-.27h-.28q-17.88-16.92-22.54-22.74-8.59-11.07-3.88-22.44Q450.38 154.7 472 127z" data-name="Capa 1"/></g></svg>