<svg xmlns="http://www.w3.org/2000/svg" viewBox="0 0 512 512"><g data-name="Слой 2"><g data-name="Capa 1"><path d="M363.27 0H148.73C66.72 0 0 66.72 0 148.73v214.54C0 445.28 66.72 512 148.73 512h214.54c82 0 148.73-66.72 148.73-148.73V148.73C512 66.72 445.28 0 363.27 0zM472 363.27A108.85 108.85 0 0 1 363.27 472H148.73A108.85 108.85 0 0 1 40 363.27V148.73A108.85 108.85 0 0 1 148.73 40h214.54A108.85 108.85 0 0 1 472 148.73z"/><path d="M256 118c-76.09 0-138 61.91-138 138s61.91 138 138 138 138-61.91 138-138-61.91-138-138-138zm0 236a98 98 0 1 1 98-98 98.11 98.11 0 0 1-98 98z"/><circle cx="396" cy="116" r="20"/></g></g></svg>